<?xml version="1.0" encoding="UTF-8"?>
<svg id="Layer_2" data-name="Layer 2" xmlns="http://www.w3.org/2000/svg" viewBox="0 0 952.16 490.44">
  <defs>
    <style>
      .cls-1 {
        fill: #6800e0;
      }

      .cls-1, .cls-2 {
        stroke-width: 0px;
      }

      .cls-2 {
        fill: #1f004c;
      }
    </style>
  </defs>
  <g id="Layer_1-2" data-name="Layer 1">
    <g>
      <g>
        <g>
          <path class="cls-2" d="m370.58,245.23v-120.37c0-1.88-.96-3.54-2.45-4.5L249.34,1.57c-1-1-2.36-1.57-3.79-1.57h-119.85c-.12,0-.23,0-.36.04-.02-.02-.04-.02-.05,0-.14-.04-.29-.04-.43-.04-2.96,0-5.36,2.41-5.36,5.36v117.63L1.57,240.93c-1,1-1.57,2.36-1.57,3.79v120.44c0,.05,0,.12.02.18v.04c-.02.07-.02.14-.02.21,0,2.96,2.39,5.36,5.36,5.36h117.95l117.94,117.94c1.02,1,2.38,1.57,3.8,1.57h120.01c.29,0,.57-.02.86-.07.07-.02.12-.02.18-.04.11-.02.23-.04.34-.09.23-.05.46-.12.68-.21.02,0,.02-.02.04-.02.23-.09.45-.2.64-.32.04-.02.05-.04.07-.04.21-.14.41-.29.61-.45.16-.13.3-.27.45-.43.09-.07.16-.16.23-.25.14-.14.25-.3.38-.48.12-.2.25-.41.34-.62.12-.25.23-.5.3-.75.04-.11.07-.21.09-.32.04-.09.05-.2.07-.29.02-.14.05-.3.05-.45.02-.18.04-.36.04-.54v-120.03c0-1.41-.57-2.79-1.57-3.79l-110.69-110.69h107.06c2.96,0,5.36-2.41,5.36-5.36Zm-250.39,114.99H17.86l102.33-102.33v102.33Zm0-117.47L10.72,352.22v-105.29l109.47-109.47v105.29ZM243.34,10.72l108.79,108.79h-104.7L138.63,10.72h104.7Zm-113.11,6.75l102.06,102.04h-102.06V17.47Zm109.81,112.76v109.65h-109.13v-109.65h109.13Zm-109.56,226.43v-102.51c0-1.98,1.59-3.57,3.57-3.57h102.51c1.96,0,3.57,1.59,3.57,3.57v102.51c0,1.96-1.61,3.57-3.57,3.57h-102.51c-1.98,0-3.57-1.61-3.57-3.57Zm116.79,123.08l-108.79-108.79h104.86l108.79,108.79h-104.86Zm112.44-112.44v104.85l-108.95-108.94v-104.86l108.95,108.95Zm-.32-130.99c0,1.96-1.59,3.57-3.57,3.57h-102.51c-1.96,0-3.57-1.61-3.57-3.57v-102.51c0-1.98,1.61-3.57,3.57-3.57h102.51c1.98,0,3.57,1.59,3.57,3.57v102.51Z"/>
          <path class="cls-1" d="m359.38,133.79v102.51c0,1.96-1.59,3.57-3.57,3.57h-102.51c-1.96,0-3.57-1.61-3.57-3.57v-102.51c0-1.98,1.61-3.57,3.57-3.57h102.51c1.98,0,3.57,1.59,3.57,3.57Z"/>
          <path class="cls-1" d="m240.12,254.14v102.51c0,1.96-1.61,3.57-3.57,3.57h-102.51c-1.98,0-3.57-1.61-3.57-3.57v-102.51c0-1.98,1.59-3.57,3.57-3.57h102.51c1.96,0,3.57,1.59,3.57,3.57Z"/>
        </g>
        <g>
          <path class="cls-2" d="m441.76,220.85v122.17c0,7.82,1.3,15.13,3.91,21.89,2.61,6.77,6.23,12.54,10.88,17.29,4.63,4.75,9.97,8.48,16.02,11.22,6.05,2.73,12.41,4.09,19.05,4.09h104.36c6.88,0,13.54-1.36,19.95-4.09,6.41-2.73,12.21-6.46,17.45-11.22,5.21-4.75,9.38-10.52,12.47-17.29,3.09-6.77,4.63-14.07,4.63-21.89v-10.95h-36.32v10.95c0,4.75-1.91,8.96-5.7,12.64-3.8,3.68-7.96,5.52-12.47,5.52h-104.36c-4.52,0-7.89-1.84-10.14-5.52-2.27-3.68-3.39-7.89-3.39-12.64v-158.51c-20.05,0-36.32,16.27-36.32,36.34Zm208.71,17.8v-35.97c0-7.84-1.36-15.14-4.09-21.91-2.73-6.77-6.48-12.52-11.22-17.27-4.75-4.75-10.52-8.5-17.29-11.23-6.77-2.71-14.05-4.09-21.89-4.09h-81.58c-10.04,0-19.11,4.07-25.68,10.64-6.57,6.57-10.64,15.64-10.64,25.68h117.9c4.5,0,8.66,1.86,12.47,5.54,3.79,3.68,5.7,7.89,5.7,12.64v35.97h36.32Z"/>
          <path class="cls-2" d="m712.64,148.18c-19.77,0-35.81,16.02-35.81,35.79v.54h196.94v-36.32h-161.14Z"/>
          <path class="cls-2" d="m952.16,238.65v158.85h-36.69v-122.16c0-20.26,16.43-36.69,36.69-36.69h0Z"/>
          <path class="cls-2" d="m883.54,283.07v60.06c0,34.09-43.75,59.79-101.78,59.79-25.2,0-49.59-4.96-68.7-14-23.56-11.13-36.54-27.39-36.54-45.79v-11.05h34.77v11.05c0,8.27,26.09,24.07,66.99,24.07.59,0,1.18,0,1.75-.02.57.02,1.14.02,1.73.02,40.32,0,66.06-15.8,66.06-24.07v-60.06c0-8.18-25.2-23.75-64.81-24.06-.41-.02-.84-.02-1.25-.02-.57,0-1.14,0-1.7.02h-3.05c-40.18.3-65.72,15.88-65.72,24.06v6.71h-34.77l.29-105.21h0c19.69,0,35.63,16.02,35.53,35.72l-.1,18.26c18.13-9.68,42.52-15.27,69.52-15.27,58.02,0,101.78,25.7,101.78,59.79Z"/>
          <path class="cls-2" d="m915.47,148.19h36.69c0,20.25-16.44,36.69-36.69,36.69h0v-36.69h0Z"/>
        </g>
      </g>
      <g>
        <path class="cls-2" d="m442.26,478.98v-41.3h5.47v16.96h21.46v-16.96h5.47v41.3h-5.47v-19.46h-21.46v19.46h-5.47Z"/>
        <path class="cls-2" d="m502.71,478.98v-4.39c-2.33,3.38-5.49,5.07-9.49,5.07-1.77,0-3.41-.34-4.94-1.01-1.53-.68-2.67-1.52-3.41-2.55-.74-1.02-1.26-2.28-1.56-3.76-.21-.99-.31-2.57-.31-4.73v-18.54h5.07v16.59c0,2.65.1,4.43.31,5.35.32,1.33,1,2.38,2.03,3.14,1.03.76,2.31,1.14,3.83,1.14s2.95-.39,4.28-1.17c1.33-.78,2.28-1.84,2.83-3.18.55-1.34.83-3.29.83-5.84v-16.03h5.07v29.92h-4.54Z"/>
        <path class="cls-2" d="m515.19,478.98v-29.92h4.54v4.2c.94-1.46,2.19-2.64,3.75-3.54,1.56-.89,3.33-1.34,5.32-1.34,2.22,0,4.03.46,5.45,1.38,1.42.92,2.42,2.21,3,3.86,2.37-3.49,5.45-5.24,9.24-5.24,2.97,0,5.25.82,6.84,2.46,1.6,1.64,2.39,4.17,2.39,7.59v20.54h-5.04v-18.85c0-2.03-.16-3.49-.49-4.38-.33-.89-.93-1.61-1.79-2.15-.86-.54-1.88-.82-3.04-.82-2.1,0-3.85.7-5.24,2.1-1.39,1.4-2.09,3.64-2.09,6.72v17.38h-5.07v-19.44c0-2.25-.41-3.94-1.24-5.07-.83-1.13-2.18-1.69-4.06-1.69-1.43,0-2.75.38-3.96,1.13-1.21.75-2.09,1.85-2.63,3.29-.55,1.45-.82,3.53-.82,6.25v15.52h-5.07Z"/>
        <path class="cls-2" d="m582.77,475.29c-1.88,1.6-3.69,2.72-5.42,3.38-1.74.66-3.6.99-5.59.99-3.29,0-5.81-.8-7.58-2.41-1.77-1.6-2.65-3.66-2.65-6.15,0-1.46.33-2.8,1-4.01.67-1.21,1.54-2.18,2.62-2.92,1.08-.73,2.3-1.29,3.65-1.66,1-.26,2.5-.51,4.51-.76,4.09-.49,7.11-1.07,9.04-1.75.02-.7.03-1.13.03-1.32,0-2.07-.48-3.52-1.44-4.37-1.3-1.15-3.22-1.72-5.78-1.72-2.38,0-4.14.42-5.28,1.25s-1.98,2.31-2.52,4.44l-4.96-.68c.45-2.12,1.19-3.84,2.23-5.14,1.03-1.31,2.53-2.31,4.48-3.01,1.95-.71,4.22-1.06,6.79-1.06s4.63.3,6.22.9c1.6.6,2.77,1.36,3.52,2.27.75.91,1.28,2.06,1.58,3.45.17.87.25,2.42.25,4.68v6.76c0,4.71.11,7.69.32,8.94.22,1.25.64,2.45,1.28,3.59h-5.3c-.53-1.05-.86-2.28-1.01-3.69Zm-.42-11.32c-1.84.75-4.6,1.39-8.28,1.92-2.09.3-3.56.64-4.42,1.01-.86.38-1.53.93-2,1.65-.47.72-.7,1.52-.7,2.41,0,1.35.51,2.48,1.54,3.38,1.02.9,2.52,1.35,4.49,1.35s3.69-.43,5.21-1.28c1.52-.85,2.64-2.02,3.35-3.51.55-1.15.82-2.84.82-5.07v-1.86Z"/>
        <path class="cls-2" d="m595.33,478.98v-29.92h4.56v4.25c2.2-3.29,5.37-4.93,9.52-4.93,1.8,0,3.46.32,4.97.97,1.51.65,2.64,1.5,3.39,2.55.75,1.05,1.28,2.3,1.58,3.75.19.94.28,2.58.28,4.93v18.4h-5.07v-18.2c0-2.07-.2-3.61-.59-4.63-.39-1.02-1.09-1.84-2.1-2.45-1-.61-2.18-.92-3.53-.92-2.16,0-4.02.69-5.59,2.06-1.57,1.37-2.35,3.97-2.35,7.8v16.34h-5.07Z"/>
        <path class="cls-2" d="m642.71,458.75c0-1.97.7-3.65,2.1-5.04,1.4-1.39,3.07-2.09,5.03-2.09s3.66.7,5.06,2.09,2.1,3.07,2.1,5.04-.7,3.66-2.1,5.06-3.08,2.1-5.06,2.1-3.63-.7-5.03-2.1c-1.4-1.4-2.1-3.08-2.1-5.06Z"/>
        <path class="cls-2" d="m672.6,478.98l15.86-41.3h5.89l16.9,41.3h-6.23l-4.82-12.51h-17.27l-4.54,12.51h-5.8Zm11.92-16.96h14l-4.31-11.44c-1.31-3.48-2.29-6.33-2.93-8.56-.53,2.65-1.27,5.28-2.23,7.89l-4.54,12.11Z"/>
        <path class="cls-2" d="m716.55,478.98v-41.3h5.47v41.3h-5.47Z"/>
        <path class="cls-2" d="m746.29,458.75c0-1.97.7-3.65,2.1-5.04,1.4-1.39,3.07-2.09,5.03-2.09s3.66.7,5.06,2.09c1.4,1.39,2.1,3.07,2.1,5.04s-.7,3.66-2.1,5.06c-1.4,1.4-3.08,2.1-5.06,2.1s-3.63-.7-5.03-2.1c-1.4-1.4-2.1-3.08-2.1-5.06Z"/>
        <path class="cls-2" d="m784.83,478.98v-41.3h5.47v41.3h-5.47Z"/>
        <path class="cls-2" d="m799.28,478.98v-29.92h4.54v4.2c.94-1.46,2.19-2.64,3.75-3.54,1.56-.89,3.33-1.34,5.32-1.34,2.22,0,4.03.46,5.45,1.38,1.42.92,2.42,2.21,3,3.86,2.37-3.49,5.45-5.24,9.24-5.24,2.97,0,5.25.82,6.84,2.46s2.39,4.17,2.39,7.59v20.54h-5.04v-18.85c0-2.03-.16-3.49-.49-4.38-.33-.89-.93-1.61-1.79-2.15-.86-.54-1.88-.82-3.04-.82-2.1,0-3.85.7-5.24,2.1-1.39,1.4-2.09,3.64-2.09,6.72v17.38h-5.07v-19.44c0-2.25-.41-3.94-1.24-5.07-.83-1.13-2.18-1.69-4.06-1.69-1.43,0-2.75.38-3.96,1.13-1.21.75-2.09,1.85-2.63,3.29-.55,1.45-.82,3.53-.82,6.25v15.52h-5.07Z"/>
        <path class="cls-2" d="m847.34,490.44v-41.38h4.62v3.89c1.09-1.52,2.32-2.66,3.69-3.42,1.37-.76,3.03-1.14,4.99-1.14,2.55,0,4.81.66,6.76,1.97,1.95,1.31,3.43,3.17,4.42,5.56,1,2.39,1.49,5.02,1.49,7.87,0,3.06-.55,5.82-1.65,8.27-1.1,2.45-2.7,4.33-4.79,5.64-2.09,1.3-4.3,1.96-6.61,1.96-1.69,0-3.21-.36-4.55-1.07-1.34-.71-2.45-1.61-3.31-2.7v14.57h-5.07Zm4.59-26.25c0,3.85.78,6.69,2.34,8.53,1.56,1.84,3.45,2.76,5.66,2.76s4.18-.95,5.79-2.86,2.41-4.86,2.41-8.86-.78-6.67-2.35-8.56c-1.57-1.9-3.44-2.84-5.62-2.84s-4.07,1.01-5.73,3.03-2.49,4.95-2.49,8.8Z"/>
        <path class="cls-2" d="m898.94,475.29c-1.88,1.6-3.69,2.72-5.42,3.38-1.74.66-3.6.99-5.59.99-3.29,0-5.81-.8-7.58-2.41-1.77-1.6-2.65-3.66-2.65-6.15,0-1.46.33-2.8,1-4.01.67-1.21,1.54-2.18,2.62-2.92,1.08-.73,2.3-1.29,3.65-1.66,1-.26,2.5-.51,4.51-.76,4.09-.49,7.11-1.07,9.04-1.75.02-.7.03-1.13.03-1.32,0-2.07-.48-3.52-1.44-4.37-1.3-1.15-3.22-1.72-5.78-1.72-2.38,0-4.14.42-5.28,1.25s-1.98,2.31-2.52,4.44l-4.96-.68c.45-2.12,1.19-3.84,2.23-5.14,1.03-1.31,2.53-2.31,4.48-3.01,1.95-.71,4.22-1.06,6.79-1.06s4.63.3,6.22.9c1.6.6,2.77,1.36,3.52,2.27.75.91,1.28,2.06,1.58,3.45.17.87.25,2.42.25,4.68v6.76c0,4.71.11,7.69.32,8.94.22,1.25.64,2.45,1.28,3.59h-5.3c-.53-1.05-.86-2.28-1.01-3.69Zm-.42-11.32c-1.84.75-4.6,1.39-8.28,1.92-2.09.3-3.56.64-4.42,1.01-.86.38-1.53.93-2,1.65-.47.72-.7,1.52-.7,2.41,0,1.35.51,2.48,1.54,3.38,1.02.9,2.52,1.35,4.49,1.35s3.69-.43,5.21-1.28c1.52-.85,2.64-2.02,3.35-3.51.55-1.15.82-2.84.82-5.07v-1.86Z"/>
        <path class="cls-2" d="m931.03,468.02l4.99.65c-.55,3.43-1.94,6.13-4.18,8.07-2.24,1.94-5,2.92-8.27,2.92-4.09,0-7.39-1.34-9.87-4.01-2.49-2.68-3.73-6.51-3.73-11.51,0-3.23.54-6.06,1.61-8.48,1.07-2.42,2.7-4.24,4.89-5.45,2.19-1.21,4.57-1.82,7.14-1.82,3.25,0,5.91.82,7.97,2.46s3.39,3.98,3.97,7l-4.93.76c-.47-2.01-1.3-3.52-2.49-4.54-1.19-1.01-2.63-1.52-4.32-1.52-2.55,0-4.63.92-6.22,2.75-1.6,1.83-2.39,4.73-2.39,8.69s.77,6.94,2.31,8.76,3.55,2.73,6.03,2.73c1.99,0,3.65-.61,4.99-1.83,1.33-1.22,2.18-3.1,2.54-5.63Z"/>
        <path class="cls-2" d="m951.42,474.44l.73,4.48c-1.43.3-2.7.45-3.83.45-1.84,0-3.27-.29-4.28-.87-1.01-.58-1.73-1.35-2.14-2.3-.41-.95-.62-2.94-.62-5.98v-17.21h-3.72v-3.94h3.72v-7.41l5.04-3.04v10.45h5.1v3.94h-5.1v17.49c0,1.45.09,2.38.27,2.79s.47.74.87.99.98.37,1.73.37c.56,0,1.31-.07,2.23-.2Z"/>
      </g>
    </g>
  </g>
</svg>